<svg class="rich-terminal" viewBox="0 0 1482 1026.0" xmlns="http://www.w3.org/2000/svg">
    <!-- Generated with Rich https://www.textualize.io -->
    <style>

    @font-face {
        font-family: "Fira Code";
        src: local("FiraCode-Regular"),
                url("https://cdnjs.cloudflare.com/ajax/libs/firacode/6.2.0/woff2/FiraCode-Regular.woff2") format("woff2"),
                url("https://cdnjs.cloudflare.com/ajax/libs/firacode/6.2.0/woff/FiraCode-Regular.woff") format("woff");
        font-style: normal;
        font-weight: 400;
    }
    @font-face {
        font-family: "Fira Code";
        src: local("FiraCode-Bold"),
                url("https://cdnjs.cloudflare.com/ajax/libs/firacode/6.2.0/woff2/FiraCode-Bold.woff2") format("woff2"),
                url("https://cdnjs.cloudflare.com/ajax/libs/firacode/6.2.0/woff/FiraCode-Bold.woff") format("woff");
        font-style: bold;
        font-weight: 700;
    }

    .terminal-1711463911-matrix {
        font-family: Fira Code, monospace;
        font-size: 20px;
        line-height: 24.4px;
        font-variant-east-asian: full-width;
    }

    .terminal-1711463911-title {
        font-size: 18px;
        font-weight: bold;
        font-family: arial;
    }

    .terminal-1711463911-r1 { fill: #e0e0e0 }
.terminal-1711463911-r2 { fill: #63696e;font-weight: bold }
.terminal-1711463911-r3 { fill: #3b3b3b }
.terminal-1711463911-r4 { fill: #646464 }
.terminal-1711463911-r5 { fill: #1a1a1a }
.terminal-1711463911-r6 { fill: #c5c8c6 }
.terminal-1711463911-r7 { fill: #2a2a2a }
.terminal-1711463911-r8 { fill: #0b3a5f }
.terminal-1711463911-r9 { fill: #121212 }
.terminal-1711463911-r10 { fill: #4a4a4a }
.terminal-1711463911-r11 { fill: #ffcf56 }
.terminal-1711463911-r12 { fill: #2d2d2d }
.terminal-1711463911-r13 { fill: #fca834;font-weight: bold }
.terminal-1711463911-r14 { fill: #e0e0e0;font-weight: bold }
.terminal-1711463911-r15 { fill: #b86b00 }
.terminal-1711463911-r16 { fill: #0d0d0d }
.terminal-1711463911-r17 { fill: #704d1c;font-weight: bold }
.terminal-1711463911-r18 { fill: #282b2e }
    </style>

    <defs>
    <clipPath id="terminal-1711463911-clip-terminal">
      <rect x="0" y="0" width="1463.0" height="975.0" />
    </clipPath>
    <clipPath id="terminal-1711463911-line-0">
    <rect x="0" y="1.5" width="1464" height="24.65"/>
            </clipPath>
<clipPath id="terminal-1711463911-line-1">
    <rect x="0" y="25.9" width="1464" height="24.65"/>
            </clipPath>
<clipPath id="terminal-1711463911-line-2">
    <rect x="0" y="50.3" width="1464" height="24.65"/>
            </clipPath>
<clipPath id="terminal-1711463911-line-3">
    <rect x="0" y="74.7" width="1464" height="24.65"/>
            </clipPath>
<clipPath id="terminal-1711463911-line-4">
    <rect x="0" y="99.1" width="1464" height="24.65"/>
            </clipPath>
<clipPath id="terminal-1711463911-line-5">
    <rect x="0" y="123.5" width="1464" height="24.65"/>
            </clipPath>
<clipPath id="terminal-1711463911-line-6">
    <rect x="0" y="147.9" width="1464" height="24.65"/>
            </clipPath>
<clipPath id="terminal-1711463911-line-7">
    <rect x="0" y="172.3" width="1464" height="24.65"/>
            </clipPath>
<clipPath id="terminal-1711463911-line-8">
    <rect x="0" y="196.7" width="1464" height="24.65"/>
            </clipPath>
<clipPath id="terminal-1711463911-line-9">
    <rect x="0" y="221.1" width="1464" height="24.65"/>
            </clipPath>
<clipPath id="terminal-1711463911-line-10">
    <rect x="0" y="245.5" width="1464" height="24.65"/>
            </clipPath>
<clipPath id="terminal-1711463911-line-11">
    <rect x="0" y="269.9" width="1464" height="24.65"/>
            </clipPath>
<clipPath id="terminal-1711463911-line-12">
    <rect x="0" y="294.3" width="1464" height="24.65"/>
            </clipPath>
<clipPath id="terminal-1711463911-line-13">
    <rect x="0" y="318.7" width="1464" height="24.65"/>
            </clipPath>
<clipPath id="terminal-1711463911-line-14">
    <rect x="0" y="343.1" width="1464" height="24.65"/>
            </clipPath>
<clipPath id="terminal-1711463911-line-15">
    <rect x="0" y="367.5" width="1464" height="24.65"/>
            </clipPath>
<clipPath id="terminal-1711463911-line-16">
    <rect x="0" y="391.9" width="1464" height="24.65"/>
            </clipPath>
<clipPath id="terminal-1711463911-line-17">
    <rect x="0" y="416.3" width="1464" height="24.65"/>
            </clipPath>
<clipPath id="terminal-1711463911-line-18">
    <rect x="0" y="440.7" width="1464" height="24.65"/>
            </clipPath>
<clipPath id="terminal-1711463911-line-19">
    <rect x="0" y="465.1" width="1464" height="24.65"/>
            </clipPath>
<clipPath id="terminal-1711463911-line-20">
    <rect x="0" y="489.5" width="1464" height="24.65"/>
            </clipPath>
<clipPath id="terminal-1711463911-line-21">
    <rect x="0" y="513.9" width="1464" height="24.65"/>
            </clipPath>
<clipPath id="terminal-1711463911-line-22">
    <rect x="0" y="538.3" width="1464" height="24.65"/>
            </clipPath>
<clipPath id="terminal-1711463911-line-23">
    <rect x="0" y="562.7" width="1464" height="24.65"/>
            </clipPath>
<clipPath id="terminal-1711463911-line-24">
    <rect x="0" y="587.1" width="1464" height="24.65"/>
            </clipPath>
<clipPath id="terminal-1711463911-line-25">
    <rect x="0" y="611.5" width="1464" height="24.65"/>
            </clipPath>
<clipPath id="terminal-1711463911-line-26">
    <rect x="0" y="635.9" width="1464" height="24.65"/>
            </clipPath>
<clipPath id="terminal-1711463911-line-27">
    <rect x="0" y="660.3" width="1464" height="24.65"/>
            </clipPath>
<clipPath id="terminal-1711463911-line-28">
    <rect x="0" y="684.7" width="1464" height="24.65"/>
            </clipPath>
<clipPath id="terminal-1711463911-line-29">
    <rect x="0" y="709.1" width="1464" height="24.65"/>
            </clipPath>
<clipPath id="terminal-1711463911-line-30">
    <rect x="0" y="733.5" width="1464" height="24.65"/>
            </clipPath>
<clipPath id="terminal-1711463911-line-31">
    <rect x="0" y="757.9" width="1464" height="24.65"/>
            </clipPath>
<clipPath id="terminal-1711463911-line-32">
    <rect x="0" y="782.3" width="1464" height="24.65"/>
            </clipPath>
<clipPath id="terminal-1711463911-line-33">
    <rect x="0" y="806.7" width="1464" height="24.65"/>
            </clipPath>
<clipPath id="terminal-1711463911-line-34">
    <rect x="0" y="831.1" width="1464" height="24.65"/>
            </clipPath>
<clipPath id="terminal-1711463911-line-35">
    <rect x="0" y="855.5" width="1464" height="24.65"/>
            </clipPath>
<clipPath id="terminal-1711463911-line-36">
    <rect x="0" y="879.9" width="1464" height="24.65"/>
            </clipPath>
<clipPath id="terminal-1711463911-line-37">
    <rect x="0" y="904.3" width="1464" height="24.65"/>
            </clipPath>
<clipPath id="terminal-1711463911-line-38">
    <rect x="0" y="928.7" width="1464" height="24.65"/>
            </clipPath>
    </defs>

    <rect fill="#292929" stroke="rgba(255,255,255,0.35)" stroke-width="1" x="1" y="1" width="1480" height="1024" rx="8"/><text class="terminal-1711463911-title" fill="#c5c8c6" text-anchor="middle" x="740" y="27">TextualCode</text>
            <g transform="translate(26,22)">
            <circle cx="0" cy="0" r="7" fill="#ff5f57"/>
            <circle cx="22" cy="0" r="7" fill="#febc2e"/>
            <circle cx="44" cy="0" r="7" fill="#28c840"/>
            </g>
        
    <g transform="translate(9, 41)" clip-path="url(#terminal-1711463911-clip-terminal)">
    <rect fill="#0b3a5f" x="0" y="1.5" width="12.2" height="24.65" shape-rendering="crispEdges"/><rect fill="#0b3a5f" x="12.2" y="1.5" width="134.2" height="24.65" shape-rendering="crispEdges"/><rect fill="#0b3a5f" x="146.4" y="1.5" width="12.2" height="24.65" shape-rendering="crispEdges"/><rect fill="#121212" x="158.6" y="1.5" width="12.2" height="24.65" shape-rendering="crispEdges"/><rect fill="#121212" x="170.8" y="1.5" width="109.8" height="24.65" shape-rendering="crispEdges"/><rect fill="#121212" x="280.6" y="1.5" width="48.8" height="24.65" shape-rendering="crispEdges"/><rect fill="#161616" x="329.4" y="1.5" width="12.2" height="24.65" shape-rendering="crispEdges"/><rect fill="#121212" x="341.6" y="1.5" width="1122.4" height="24.65" shape-rendering="crispEdges"/><rect fill="#121212" x="0" y="25.9" width="12.2" height="24.65" shape-rendering="crispEdges"/><rect fill="#121212" x="12.2" y="25.9" width="134.2" height="24.65" shape-rendering="crispEdges"/><rect fill="#121212" x="146.4" y="25.9" width="183" height="24.65" shape-rendering="crispEdges"/><rect fill="#161616" x="329.4" y="25.9" width="12.2" height="24.65" shape-rendering="crispEdges"/><rect fill="#121212" x="341.6" y="25.9" width="1122.4" height="24.65" shape-rendering="crispEdges"/><rect fill="#161616" x="0" y="50.3" width="341.6" height="24.65" shape-rendering="crispEdges"/><rect fill="#121212" x="341.6" y="50.3" width="1122.4" height="24.65" shape-rendering="crispEdges"/><rect fill="#161616" x="0" y="74.7" width="341.6" height="24.65" shape-rendering="crispEdges"/><rect fill="#121212" x="341.6" y="74.7" width="1122.4" height="24.65" shape-rendering="crispEdges"/><rect fill="#161616" x="0" y="99.1" width="341.6" height="24.65" shape-rendering="crispEdges"/><rect fill="#121212" x="341.6" y="99.1" width="1122.4" height="24.65" shape-rendering="crispEdges"/><rect fill="#161616" x="0" y="123.5" width="341.6" height="24.65" shape-rendering="crispEdges"/><rect fill="#121212" x="341.6" y="123.5" width="1122.4" height="24.65" shape-rendering="crispEdges"/><rect fill="#161616" x="0" y="147.9" width="341.6" height="24.65" shape-rendering="crispEdges"/><rect fill="#121212" x="341.6" y="147.9" width="1122.4" height="24.65" shape-rendering="crispEdges"/><rect fill="#161616" x="0" y="172.3" width="341.6" height="24.65" shape-rendering="crispEdges"/><rect fill="#121212" x="341.6" y="172.3" width="1122.4" height="24.65" shape-rendering="crispEdges"/><rect fill="#161616" x="0" y="196.7" width="341.6" height="24.65" shape-rendering="crispEdges"/><rect fill="#121212" x="341.6" y="196.7" width="1122.4" height="24.65" shape-rendering="crispEdges"/><rect fill="#161616" x="0" y="221.1" width="341.6" height="24.65" shape-rendering="crispEdges"/><rect fill="#121212" x="341.6" y="221.1" width="1122.4" height="24.65" shape-rendering="crispEdges"/><rect fill="#161616" x="0" y="245.5" width="341.6" height="24.65" shape-rendering="crispEdges"/><rect fill="#121212" x="341.6" y="245.5" width="1122.4" height="24.65" shape-rendering="crispEdges"/><rect fill="#161616" x="0" y="269.9" width="341.6" height="24.65" shape-rendering="crispEdges"/><rect fill="#121212" x="341.6" y="269.9" width="1122.4" height="24.65" shape-rendering="crispEdges"/><rect fill="#161616" x="0" y="294.3" width="341.6" height="24.65" shape-rendering="crispEdges"/><rect fill="#121212" x="341.6" y="294.3" width="1122.4" height="24.65" shape-rendering="crispEdges"/><rect fill="#161616" x="0" y="318.7" width="341.6" height="24.65" shape-rendering="crispEdges"/><rect fill="#121212" x="341.6" y="318.7" width="1122.4" height="24.65" shape-rendering="crispEdges"/><rect fill="#161616" x="0" y="343.1" width="341.6" height="24.65" shape-rendering="crispEdges"/><rect fill="#121212" x="341.6" y="343.1" width="24.4" height="24.65" shape-rendering="crispEdges"/><rect fill="#1e1e1e" x="366" y="343.1" width="732" height="24.65" shape-rendering="crispEdges"/><rect fill="#121212" x="1098" y="343.1" width="366" height="24.65" shape-rendering="crispEdges"/><rect fill="#161616" x="0" y="367.5" width="341.6" height="24.65" shape-rendering="crispEdges"/><rect fill="#121212" x="341.6" y="367.5" width="24.4" height="24.65" shape-rendering="crispEdges"/><rect fill="#1e1e1e" x="366" y="367.5" width="12.2" height="24.65" shape-rendering="crispEdges"/><rect fill="#1e1e1e" x="378.2" y="367.5" width="12.2" height="24.65" shape-rendering="crispEdges"/><rect fill="#1e1e1e" x="390.4" y="367.5" width="219.6" height="24.65" shape-rendering="crispEdges"/><rect fill="#1e1e1e" x="610" y="367.5" width="244" height="24.65" shape-rendering="crispEdges"/><rect fill="#1e1e1e" x="854" y="367.5" width="219.6" height="24.65" shape-rendering="crispEdges"/><rect fill="#1e1e1e" x="1073.6" y="367.5" width="12.2" height="24.65" shape-rendering="crispEdges"/><rect fill="#1e1e1e" x="1085.8" y="367.5" width="12.2" height="24.65" shape-rendering="crispEdges"/><rect fill="#121212" x="1098" y="367.5" width="366" height="24.65" shape-rendering="crispEdges"/><rect fill="#161616" x="0" y="391.9" width="341.6" height="24.65" shape-rendering="crispEdges"/><rect fill="#121212" x="341.6" y="391.9" width="24.4" height="24.65" shape-rendering="crispEdges"/><rect fill="#1e1e1e" x="366" y="391.9" width="12.2" height="24.65" shape-rendering="crispEdges"/><rect fill="#1e1e1e" x="378.2" y="391.9" width="12.2" height="24.65" shape-rendering="crispEdges"/><rect fill="#1e1e1e" x="390.4" y="391.9" width="683.2" height="24.65" shape-rendering="crispEdges"/><rect fill="#1e1e1e" x="1073.6" y="391.9" width="12.2" height="24.65" shape-rendering="crispEdges"/><rect fill="#1e1e1e" x="1085.8" y="391.9" width="12.2" height="24.65" shape-rendering="crispEdges"/><rect fill="#121212" x="1098" y="391.9" width="366" height="24.65" shape-rendering="crispEdges"/><rect fill="#161616" x="0" y="416.3" width="341.6" height="24.65" shape-rendering="crispEdges"/><rect fill="#121212" x="341.6" y="416.3" width="24.4" height="24.65" shape-rendering="crispEdges"/><rect fill="#1e1e1e" x="366" y="416.3" width="12.2" height="24.65" shape-rendering="crispEdges"/><rect fill="#1e1e1e" x="378.2" y="416.3" width="707.6" height="24.65" shape-rendering="crispEdges"/><rect fill="#1e1e1e" x="1085.8" y="416.3" width="12.2" height="24.65" shape-rendering="crispEdges"/><rect fill="#121212" x="1098" y="416.3" width="366" height="24.65" shape-rendering="crispEdges"/><rect fill="#161616" x="0" y="440.7" width="341.6" height="24.65" shape-rendering="crispEdges"/><rect fill="#121212" x="341.6" y="440.7" width="24.4" height="24.65" shape-rendering="crispEdges"/><rect fill="#1e1e1e" x="366" y="440.7" width="12.2" height="24.65" shape-rendering="crispEdges"/><rect fill="#1e1e1e" x="378.2" y="440.7" width="12.2" height="24.65" shape-rendering="crispEdges"/><rect fill="#1e1e1e" x="390.4" y="440.7" width="292.8" height="24.65" shape-rendering="crispEdges"/><rect fill="#1e1e1e" x="683.2" y="440.7" width="97.6" height="24.65" shape-rendering="crispEdges"/><rect fill="#1e1e1e" x="780.8" y="440.7" width="292.8" height="24.65" shape-rendering="crispEdges"/><rect fill="#1e1e1e" x="1073.6" y="440.7" width="12.2" height="24.65" shape-rendering="crispEdges"/><rect fill="#1e1e1e" x="1085.8" y="440.7" width="12.2" height="24.65" shape-rendering="crispEdges"/><rect fill="#121212" x="1098" y="440.7" width="366" height="24.65" shape-rendering="crispEdges"/><rect fill="#161616" x="0" y="465.1" width="329.4" height="24.65" shape-rendering="crispEdges"/><rect fill="#161616" x="329.4" y="465.1" width="12.2" height="24.65" shape-rendering="crispEdges"/><rect fill="#121212" x="341.6" y="465.1" width="24.4" height="24.65" shape-rendering="crispEdges"/><rect fill="#1e1e1e" x="366" y="465.1" width="12.2" height="24.65" shape-rendering="crispEdges"/><rect fill="#1e1e1e" x="378.2" y="465.1" width="12.2" height="24.65" shape-rendering="crispEdges"/><rect fill="#1e1e1e" x="390.4" y="465.1" width="683.2" height="24.65" shape-rendering="crispEdges"/><rect fill="#1e1e1e" x="1073.6" y="465.1" width="12.2" height="24.65" shape-rendering="crispEdges"/><rect fill="#1e1e1e" x="1085.8" y="465.1" width="12.2" height="24.65" shape-rendering="crispEdges"/><rect fill="#121212" x="1098" y="465.1" width="366" height="24.65" shape-rendering="crispEdges"/><rect fill="#161616" x="0" y="489.5" width="341.6" height="24.65" shape-rendering="crispEdges"/><rect fill="#121212" x="341.6" y="489.5" width="24.4" height="24.65" shape-rendering="crispEdges"/><rect fill="#1e1e1e" x="366" y="489.5" width="12.2" height="24.65" shape-rendering="crispEdges"/><rect fill="#1e1e1e" x="378.2" y="489.5" width="707.6" height="24.65" shape-rendering="crispEdges"/><rect fill="#1e1e1e" x="1085.8" y="489.5" width="12.2" height="24.65" shape-rendering="crispEdges"/><rect fill="#121212" x="1098" y="489.5" width="366" height="24.65" shape-rendering="crispEdges"/><rect fill="#161616" x="0" y="513.9" width="341.6" height="24.65" shape-rendering="crispEdges"/><rect fill="#121212" x="341.6" y="513.9" width="24.4" height="24.65" shape-rendering="crispEdges"/><rect fill="#1e1e1e" x="366" y="513.9" width="12.2" height="24.65" shape-rendering="crispEdges"/><rect fill="#1e1e1e" x="378.2" y="513.9" width="12.2" height="24.65" shape-rendering="crispEdges"/><rect fill="#fca834" x="390.4" y="513.9" width="329.4" height="24.65" shape-rendering="crispEdges"/><rect fill="#1e1e1e" x="719.8" y="513.9" width="24.4" height="24.65" shape-rendering="crispEdges"/><rect fill="#1e1e1e" x="744.2" y="513.9" width="329.4" height="24.65" shape-rendering="crispEdges"/><rect fill="#1e1e1e" x="1073.6" y="513.9" width="12.2" height="24.65" shape-rendering="crispEdges"/><rect fill="#1e1e1e" x="1085.8" y="513.9" width="12.2" height="24.65" shape-rendering="crispEdges"/><rect fill="#121212" x="1098" y="513.9" width="366" height="24.65" shape-rendering="crispEdges"/><rect fill="#161616" x="0" y="538.3" width="341.6" height="24.65" shape-rendering="crispEdges"/><rect fill="#121212" x="341.6" y="538.3" width="24.4" height="24.65" shape-rendering="crispEdges"/><rect fill="#1e1e1e" x="366" y="538.3" width="12.2" height="24.65" shape-rendering="crispEdges"/><rect fill="#1e1e1e" x="378.2" y="538.3" width="12.2" height="24.65" shape-rendering="crispEdges"/><rect fill="#fca834" x="390.4" y="538.3" width="122" height="24.65" shape-rendering="crispEdges"/><rect fill="#201506" x="512.4" y="538.3" width="73.2" height="24.65" shape-rendering="crispEdges"/><rect fill="#fca834" x="585.6" y="538.3" width="134.2" height="24.65" shape-rendering="crispEdges"/><rect fill="#1e1e1e" x="719.8" y="538.3" width="146.4" height="24.65" shape-rendering="crispEdges"/><rect fill="#1e1e1e" x="866.2" y="538.3" width="85.4" height="24.65" shape-rendering="crispEdges"/><rect fill="#1e1e1e" x="951.6" y="538.3" width="134.2" height="24.65" shape-rendering="crispEdges"/><rect fill="#1e1e1e" x="1085.8" y="538.3" width="12.2" height="24.65" shape-rendering="crispEdges"/><rect fill="#121212" x="1098" y="538.3" width="366" height="24.65" shape-rendering="crispEdges"/><rect fill="#161616" x="0" y="562.7" width="341.6" height="24.65" shape-rendering="crispEdges"/><rect fill="#121212" x="341.6" y="562.7" width="24.4" height="24.65" shape-rendering="crispEdges"/><rect fill="#1e1e1e" x="366" y="562.7" width="12.2" height="24.65" shape-rendering="crispEdges"/><rect fill="#1e1e1e" x="378.2" y="562.7" width="12.2" height="24.65" shape-rendering="crispEdges"/><rect fill="#fca834" x="390.4" y="562.7" width="329.4" height="24.65" shape-rendering="crispEdges"/><rect fill="#1e1e1e" x="719.8" y="562.7" width="24.4" height="24.65" shape-rendering="crispEdges"/><rect fill="#1e1e1e" x="744.2" y="562.7" width="329.4" height="24.65" shape-rendering="crispEdges"/><rect fill="#1e1e1e" x="1073.6" y="562.7" width="12.2" height="24.65" shape-rendering="crispEdges"/><rect fill="#1e1e1e" x="1085.8" y="562.7" width="12.2" height="24.65" shape-rendering="crispEdges"/><rect fill="#121212" x="1098" y="562.7" width="366" height="24.65" shape-rendering="crispEdges"/><rect fill="#161616" x="0" y="587.1" width="341.6" height="24.65" shape-rendering="crispEdges"/><rect fill="#121212" x="341.6" y="587.1" width="24.4" height="24.65" shape-rendering="crispEdges"/><rect fill="#1e1e1e" x="366" y="587.1" width="732" height="24.65" shape-rendering="crispEdges"/><rect fill="#121212" x="1098" y="587.1" width="366" height="24.65" shape-rendering="crispEdges"/><rect fill="#161616" x="0" y="611.5" width="341.6" height="24.65" shape-rendering="crispEdges"/><rect fill="#121212" x="341.6" y="611.5" width="1122.4" height="24.65" shape-rendering="crispEdges"/><rect fill="#161616" x="0" y="635.9" width="341.6" height="24.65" shape-rendering="crispEdges"/><rect fill="#121212" x="341.6" y="635.9" width="1122.4" height="24.65" shape-rendering="crispEdges"/><rect fill="#161616" x="0" y="660.3" width="341.6" height="24.65" shape-rendering="crispEdges"/><rect fill="#121212" x="341.6" y="660.3" width="1122.4" height="24.65" shape-rendering="crispEdges"/><rect fill="#161616" x="0" y="684.7" width="341.6" height="24.65" shape-rendering="crispEdges"/><rect fill="#121212" x="341.6" y="684.7" width="1122.4" height="24.65" shape-rendering="crispEdges"/><rect fill="#161616" x="0" y="709.1" width="341.6" height="24.65" shape-rendering="crispEdges"/><rect fill="#121212" x="341.6" y="709.1" width="1122.4" height="24.65" shape-rendering="crispEdges"/><rect fill="#161616" x="0" y="733.5" width="341.6" height="24.65" shape-rendering="crispEdges"/><rect fill="#121212" x="341.6" y="733.5" width="1122.4" height="24.65" shape-rendering="crispEdges"/><rect fill="#161616" x="0" y="757.9" width="341.6" height="24.65" shape-rendering="crispEdges"/><rect fill="#121212" x="341.6" y="757.9" width="1122.4" height="24.65" shape-rendering="crispEdges"/><rect fill="#161616" x="0" y="782.3" width="341.6" height="24.65" shape-rendering="crispEdges"/><rect fill="#121212" x="341.6" y="782.3" width="1122.4" height="24.65" shape-rendering="crispEdges"/><rect fill="#161616" x="0" y="806.7" width="341.6" height="24.65" shape-rendering="crispEdges"/><rect fill="#121212" x="341.6" y="806.7" width="1122.4" height="24.65" shape-rendering="crispEdges"/><rect fill="#161616" x="0" y="831.1" width="341.6" height="24.65" shape-rendering="crispEdges"/><rect fill="#121212" x="341.6" y="831.1" width="1122.4" height="24.65" shape-rendering="crispEdges"/><rect fill="#161616" x="0" y="855.5" width="341.6" height="24.65" shape-rendering="crispEdges"/><rect fill="#121212" x="341.6" y="855.5" width="1122.4" height="24.65" shape-rendering="crispEdges"/><rect fill="#161616" x="0" y="879.9" width="341.6" height="24.65" shape-rendering="crispEdges"/><rect fill="#121212" x="341.6" y="879.9" width="378.2" height="24.65" shape-rendering="crispEdges"/><rect fill="#1f2428" x="719.8" y="879.9" width="719.8" height="24.65" shape-rendering="crispEdges"/><rect fill="#121212" x="1439.6" y="879.9" width="24.4" height="24.65" shape-rendering="crispEdges"/><rect fill="#161616" x="0" y="904.3" width="341.6" height="24.65" shape-rendering="crispEdges"/><rect fill="#121212" x="341.6" y="904.3" width="378.2" height="24.65" shape-rendering="crispEdges"/><rect fill="#1f2428" x="719.8" y="904.3" width="12.2" height="24.65" shape-rendering="crispEdges"/><rect fill="#1f2428" x="732" y="904.3" width="12.2" height="24.65" shape-rendering="crispEdges"/><rect fill="#1f2428" x="744.2" y="904.3" width="12.2" height="24.65" shape-rendering="crispEdges"/><rect fill="#1f2428" x="756.4" y="904.3" width="244" height="24.65" shape-rendering="crispEdges"/><rect fill="#1f2428" x="1000.4" y="904.3" width="439.2" height="24.65" shape-rendering="crispEdges"/><rect fill="#121212" x="1439.6" y="904.3" width="24.4" height="24.65" shape-rendering="crispEdges"/><rect fill="#161616" x="0" y="928.7" width="341.6" height="24.65" shape-rendering="crispEdges"/><rect fill="#121212" x="341.6" y="928.7" width="12.2" height="24.65" shape-rendering="crispEdges"/><rect fill="#161616" x="353.8" y="928.7" width="366" height="24.65" shape-rendering="crispEdges"/><rect fill="#1f2428" x="719.8" y="928.7" width="719.8" height="24.65" shape-rendering="crispEdges"/><rect fill="#161616" x="1439.6" y="928.7" width="12.2" height="24.65" shape-rendering="crispEdges"/><rect fill="#121212" x="1451.8" y="928.7" width="12.2" height="24.65" shape-rendering="crispEdges"/><rect fill="#191d21" x="0" y="953.1" width="48.8" height="24.65" shape-rendering="crispEdges"/><rect fill="#191d21" x="48.8" y="953.1" width="122" height="24.65" shape-rendering="crispEdges"/><rect fill="#191d21" x="170.8" y="953.1" width="48.8" height="24.65" shape-rendering="crispEdges"/><rect fill="#191d21" x="219.6" y="953.1" width="219.6" height="24.65" shape-rendering="crispEdges"/><rect fill="#191d21" x="439.2" y="953.1" width="48.8" height="24.65" shape-rendering="crispEdges"/><rect fill="#191d21" x="488" y="953.1" width="183" height="24.65" shape-rendering="crispEdges"/><rect fill="#191d21" x="671" y="953.1" width="646.6" height="24.65" shape-rendering="crispEdges"/><rect fill="#191d21" x="1317.6" y="953.1" width="12.2" height="24.65" shape-rendering="crispEdges"/><rect fill="#191d21" x="1329.8" y="953.1" width="24.4" height="24.65" shape-rendering="crispEdges"/><rect fill="#191d21" x="1354.2" y="953.1" width="97.6" height="24.65" shape-rendering="crispEdges"/><rect fill="#191d21" x="1451.8" y="953.1" width="12.2" height="24.65" shape-rendering="crispEdges"/>
    <g class="terminal-1711463911-matrix">
    <text class="terminal-1711463911-r2" x="12.2" y="20" textLength="122" clip-path="url(#terminal-1711463911-line-0)">📁&#160;Explorer</text><text class="terminal-1711463911-r3" x="170.8" y="20" textLength="97.6" clip-path="url(#terminal-1711463911-line-0)">🔍&#160;Search</text><text class="terminal-1711463911-r5" x="341.6" y="20" textLength="1122.4" clip-path="url(#terminal-1711463911-line-0)">━━━━━━━━━━━━━━━━━━━━━━━━━━━━━━━━━━━━━━━━━━━━━━━━━━━━━━━━━━━━━━━━━━━━━━━━━━━━━━━━━━━━━━━━━━━━</text><text class="terminal-1711463911-r6" x="1464" y="20" textLength="12.2" clip-path="url(#terminal-1711463911-line-0)">
</text><text class="terminal-1711463911-r7" x="0" y="44.4" textLength="12.2" clip-path="url(#terminal-1711463911-line-1)">╸</text><text class="terminal-1711463911-r8" x="12.2" y="44.4" textLength="134.2" clip-path="url(#terminal-1711463911-line-1)">━━━━━━━━━━━</text><text class="terminal-1711463911-r7" x="146.4" y="44.4" textLength="183" clip-path="url(#terminal-1711463911-line-1)">╺━━━━━━━━━━━━━━</text><text class="terminal-1711463911-r6" x="1464" y="44.4" textLength="12.2" clip-path="url(#terminal-1711463911-line-1)">
</text><text class="terminal-1711463911-r6" x="1464" y="68.8" textLength="12.2" clip-path="url(#terminal-1711463911-line-2)">
</text><text class="terminal-1711463911-r6" x="1464" y="93.2" textLength="12.2" clip-path="url(#terminal-1711463911-line-3)">
</text><text class="terminal-1711463911-r6" x="1464" y="117.6" textLength="12.2" clip-path="url(#terminal-1711463911-line-4)">
</text><text class="terminal-1711463911-r6" x="1464" y="142" textLength="12.2" clip-path="url(#terminal-1711463911-line-5)">
</text><text class="terminal-1711463911-r6" x="1464" y="166.4" textLength="12.2" clip-path="url(#terminal-1711463911-line-6)">
</text><text class="terminal-1711463911-r6" x="1464" y="190.8" textLength="12.2" clip-path="url(#terminal-1711463911-line-7)">
</text><text class="terminal-1711463911-r6" x="1464" y="215.2" textLength="12.2" clip-path="url(#terminal-1711463911-line-8)">
</text><text class="terminal-1711463911-r6" x="1464" y="239.6" textLength="12.2" clip-path="url(#terminal-1711463911-line-9)">
</text><text class="terminal-1711463911-r6" x="1464" y="264" textLength="12.2" clip-path="url(#terminal-1711463911-line-10)">
</text><text class="terminal-1711463911-r6" x="1464" y="288.4" textLength="12.2" clip-path="url(#terminal-1711463911-line-11)">
</text><text class="terminal-1711463911-r6" x="1464" y="312.8" textLength="12.2" clip-path="url(#terminal-1711463911-line-12)">
</text><text class="terminal-1711463911-r6" x="1464" y="337.2" textLength="12.2" clip-path="url(#terminal-1711463911-line-13)">
</text><text class="terminal-1711463911-r9" x="366" y="361.6" textLength="732" clip-path="url(#terminal-1711463911-line-14)">█▀▀▀▀▀▀▀▀▀▀▀▀▀▀▀▀▀▀▀▀▀▀▀▀▀▀▀▀▀▀▀▀▀▀▀▀▀▀▀▀▀▀▀▀▀▀▀▀▀▀▀▀▀▀▀▀▀▀█</text><text class="terminal-1711463911-r6" x="1464" y="361.6" textLength="12.2" clip-path="url(#terminal-1711463911-line-14)">
</text><text class="terminal-1711463911-r9" x="366" y="386" textLength="12.2" clip-path="url(#terminal-1711463911-line-15)">█</text><text class="terminal-1711463911-r1" x="610" y="386" textLength="244" clip-path="url(#terminal-1711463911-line-15)">Deleting&#160;&#x27;bigdir&#x27;...</text><text class="terminal-1711463911-r9" x="1085.8" y="386" textLength="12.2" clip-path="url(#terminal-1711463911-line-15)">█</text><text class="terminal-1711463911-r6" x="1464" y="386" textLength="12.2" clip-path="url(#terminal-1711463911-line-15)">
</text><text class="terminal-1711463911-r9" x="366" y="410.4" textLength="12.2" clip-path="url(#terminal-1711463911-line-16)">█</text><text class="terminal-1711463911-r9" x="1085.8" y="410.4" textLength="12.2" clip-path="url(#terminal-1711463911-line-16)">█</text><text class="terminal-1711463911-r6" x="1464" y="410.4" textLength="12.2" clip-path="url(#terminal-1711463911-line-16)">
</text><text class="terminal-1711463911-r9" x="366" y="434.8" textLength="12.2" clip-path="url(#terminal-1711463911-line-17)">█</text><text class="terminal-1711463911-r9" x="1085.8" y="434.8" textLength="12.2" clip-path="url(#terminal-1711463911-line-17)">█</text><text class="terminal-1711463911-r6" x="1464" y="434.8" textLength="12.2" clip-path="url(#terminal-1711463911-line-17)">
</text><text class="terminal-1711463911-r9" x="366" y="459.2" textLength="12.2" clip-path="url(#terminal-1711463911-line-18)">█</text><text class="terminal-1711463911-r1" x="683.2" y="459.2" textLength="97.6" clip-path="url(#terminal-1711463911-line-18)">Running…</text><text class="terminal-1711463911-r9" x="1085.8" y="459.2" textLength="12.2" clip-path="url(#terminal-1711463911-line-18)">█</text><text class="terminal-1711463911-r6" x="1464" y="459.2" textLength="12.2" clip-path="url(#terminal-1711463911-line-18)">
</text><text class="terminal-1711463911-r10" x="329.4" y="483.6" textLength="12.2" clip-path="url(#terminal-1711463911-line-19)">│</text><text class="terminal-1711463911-r9" x="366" y="483.6" textLength="12.2" clip-path="url(#terminal-1711463911-line-19)">█</text><text class="terminal-1711463911-r9" x="1085.8" y="483.6" textLength="12.2" clip-path="url(#terminal-1711463911-line-19)">█</text><text class="terminal-1711463911-r6" x="1464" y="483.6" textLength="12.2" clip-path="url(#terminal-1711463911-line-19)">
</text><text class="terminal-1711463911-r9" x="366" y="508" textLength="12.2" clip-path="url(#terminal-1711463911-line-20)">█</text><text class="terminal-1711463911-r9" x="1085.8" y="508" textLength="12.2" clip-path="url(#terminal-1711463911-line-20)">█</text><text class="terminal-1711463911-r6" x="1464" y="508" textLength="12.2" clip-path="url(#terminal-1711463911-line-20)">
</text><text class="terminal-1711463911-r9" x="366" y="532.4" textLength="12.2" clip-path="url(#terminal-1711463911-line-21)">█</text><text class="terminal-1711463911-r11" x="390.4" y="532.4" textLength="329.4" clip-path="url(#terminal-1711463911-line-21)">▔▔▔▔▔▔▔▔▔▔▔▔▔▔▔▔▔▔▔▔▔▔▔▔▔▔▔</text><text class="terminal-1711463911-r12" x="744.2" y="532.4" textLength="329.4" clip-path="url(#terminal-1711463911-line-21)">▔▔▔▔▔▔▔▔▔▔▔▔▔▔▔▔▔▔▔▔▔▔▔▔▔▔▔</text><text class="terminal-1711463911-r9" x="1085.8" y="532.4" textLength="12.2" clip-path="url(#terminal-1711463911-line-21)">█</text><text class="terminal-1711463911-r6" x="1464" y="532.4" textLength="12.2" clip-path="url(#terminal-1711463911-line-21)">
</text><text class="terminal-1711463911-r9" x="366" y="556.8" textLength="12.2" clip-path="url(#terminal-1711463911-line-22)">█</text><text class="terminal-1711463911-r13" x="512.4" y="556.8" textLength="73.2" clip-path="url(#terminal-1711463911-line-22)">&#160;Stop&#160;</text><text class="terminal-1711463911-r14" x="866.2" y="556.8" textLength="85.4" clip-path="url(#terminal-1711463911-line-22)">&#160;Close&#160;</text><text class="terminal-1711463911-r9" x="1085.8" y="556.8" textLength="12.2" clip-path="url(#terminal-1711463911-line-22)">█</text><text class="terminal-1711463911-r6" x="1464" y="556.8" textLength="12.2" clip-path="url(#terminal-1711463911-line-22)">
</text><text class="terminal-1711463911-r9" x="366" y="581.2" textLength="12.2" clip-path="url(#terminal-1711463911-line-23)">█</text><text class="terminal-1711463911-r15" x="390.4" y="581.2" textLength="329.4" clip-path="url(#terminal-1711463911-line-23)">▁▁▁▁▁▁▁▁▁▁▁▁▁▁▁▁▁▁▁▁▁▁▁▁▁▁▁</text><text class="terminal-1711463911-r16" x="744.2" y="581.2" textLength="329.4" clip-path="url(#terminal-1711463911-line-23)">▁▁▁▁▁▁▁▁▁▁▁▁▁▁▁▁▁▁▁▁▁▁▁▁▁▁▁</text><text class="terminal-1711463911-r9" x="1085.8" y="581.2" textLength="12.2" clip-path="url(#terminal-1711463911-line-23)">█</text><text class="terminal-1711463911-r6" x="1464" y="581.2" textLength="12.2" clip-path="url(#terminal-1711463911-line-23)">
</text><text class="terminal-1711463911-r9" x="366" y="605.6" textLength="732" clip-path="url(#terminal-1711463911-line-24)">█▄▄▄▄▄▄▄▄▄▄▄▄▄▄▄▄▄▄▄▄▄▄▄▄▄▄▄▄▄▄▄▄▄▄▄▄▄▄▄▄▄▄▄▄▄▄▄▄▄▄▄▄▄▄▄▄▄▄█</text><text class="terminal-1711463911-r6" x="1464" y="605.6" textLength="12.2" clip-path="url(#terminal-1711463911-line-24)">
</text><text class="terminal-1711463911-r6" x="1464" y="630" textLength="12.2" clip-path="url(#terminal-1711463911-line-25)">
</text><text class="terminal-1711463911-r6" x="1464" y="654.4" textLength="12.2" clip-path="url(#terminal-1711463911-line-26)">
</text><text class="terminal-1711463911-r6" x="1464" y="678.8" textLength="12.2" clip-path="url(#terminal-1711463911-line-27)">
</text><text class="terminal-1711463911-r6" x="1464" y="703.2" textLength="12.2" clip-path="url(#terminal-1711463911-line-28)">
</text><text class="terminal-1711463911-r6" x="1464" y="727.6" textLength="12.2" clip-path="url(#terminal-1711463911-line-29)">
</text><text class="terminal-1711463911-r6" x="1464" y="752" textLength="12.2" clip-path="url(#terminal-1711463911-line-30)">
</text><text class="terminal-1711463911-r6" x="1464" y="776.4" textLength="12.2" clip-path="url(#terminal-1711463911-line-31)">
</text><text class="terminal-1711463911-r6" x="1464" y="800.8" textLength="12.2" clip-path="url(#terminal-1711463911-line-32)">
</text><text class="terminal-1711463911-r6" x="1464" y="825.2" textLength="12.2" clip-path="url(#terminal-1711463911-line-33)">
</text><text class="terminal-1711463911-r6" x="1464" y="849.6" textLength="12.2" clip-path="url(#terminal-1711463911-line-34)">
</text><text class="terminal-1711463911-r6" x="1464" y="874" textLength="12.2" clip-path="url(#terminal-1711463911-line-35)">
</text><text class="terminal-1711463911-r6" x="1464" y="898.4" textLength="12.2" clip-path="url(#terminal-1711463911-line-36)">
</text><text class="terminal-1711463911-r4" x="732" y="922.8" textLength="12.2" clip-path="url(#terminal-1711463911-line-37)">●</text><text class="terminal-1711463911-r4" x="756.4" y="922.8" textLength="244" clip-path="url(#terminal-1711463911-line-37)">Deleting&#160;&#x27;bigdir&#x27;...</text><text class="terminal-1711463911-r6" x="1464" y="922.8" textLength="12.2" clip-path="url(#terminal-1711463911-line-37)">
</text><text class="terminal-1711463911-r6" x="1464" y="947.2" textLength="12.2" clip-path="url(#terminal-1711463911-line-38)">
</text><text class="terminal-1711463911-r17" x="0" y="971.6" textLength="48.8" clip-path="url(#terminal-1711463911-line-39)">&#160;^o&#160;</text><text class="terminal-1711463911-r4" x="48.8" y="971.6" textLength="122" clip-path="url(#terminal-1711463911-line-39)">Open&#160;File&#160;</text><text class="terminal-1711463911-r17" x="170.8" y="971.6" textLength="48.8" clip-path="url(#terminal-1711463911-line-39)">&#160;^n&#160;</text><text class="terminal-1711463911-r4" x="219.6" y="971.6" textLength="219.6" clip-path="url(#terminal-1711463911-line-39)">New&#160;Untitled&#160;File&#160;</text><text class="terminal-1711463911-r17" x="439.2" y="971.6" textLength="48.8" clip-path="url(#terminal-1711463911-line-39)">&#160;^b&#160;</text><text class="terminal-1711463911-r4" x="488" y="971.6" textLength="183" clip-path="url(#terminal-1711463911-line-39)">Toggle&#160;Sidebar&#160;</text><text class="terminal-1711463911-r18" x="1317.6" y="971.6" textLength="12.2" clip-path="url(#terminal-1711463911-line-39)">▏</text><text class="terminal-1711463911-r17" x="1329.8" y="971.6" textLength="24.4" clip-path="url(#terminal-1711463911-line-39)">^p</text><text class="terminal-1711463911-r4" x="1354.2" y="971.6" textLength="97.6" clip-path="url(#terminal-1711463911-line-39)">&#160;palette</text>
    </g>
    </g>
</svg>
